<svg width="40" height="41" viewBox="0 0 40 41" fill="none" xmlns="http://www.w3.org/2000/svg">
<rect y="0.5" width="40" height="40" rx="20" fill="#82E2DA"/>
<path fill-rule="evenodd" clip-rule="evenodd" d="M16 10.5C16.5523 10.5 17 10.9477 17 11.5H23C23 10.9477 23.4477 10.5 24 10.5C24.5523 10.5 25 10.9477 25 11.5C27.7614 11.5 30 13.7386 30 16.5V25.5C30 28.2614 27.7614 30.5 25 30.5H15C12.2386 30.5 10 28.2614 10 25.5V16.5C10 13.7386 12.2386 11.5 15 11.5C15 10.9477 15.4477 10.5 16 10.5ZM14 18.5C14 17.9477 14.4477 17.5 15 17.5H25C25.5523 17.5 26 17.9477 26 18.5C26 19.0523 25.5523 19.5 25 19.5H15C14.4477 19.5 14 19.0523 14 18.5ZM23 25.5C23 24.9477 23.4477 24.5 24 24.5H25C25.5523 24.5 26 24.9477 26 25.5C26 26.0523 25.5523 26.5 25 26.5H24C23.4477 26.5 23 26.0523 23 25.5Z" fill="white"/>
</svg>
