<svg width="24" height="24" viewBox="0 0 24 24" fill="none" xmlns="http://www.w3.org/2000/svg">
<circle cx="12" cy="12" r="9" stroke="black" stroke-width="2"/>
<path d="M9 17V7H12.6081C13.3472 7 13.9673 7.14323 14.4685 7.42969C14.9727 7.71615 15.3532 8.11003 15.6101 8.61133C15.87 9.10937 16 9.67578 16 10.3105C16 10.9518 15.87 11.5215 15.6101 12.0195C15.3501 12.5176 14.9664 12.9098 14.4591 13.1963C13.9517 13.4795 13.3268 13.6211 12.5846 13.6211H10.1933V12.1318H12.3497C12.7819 12.1318 13.1358 12.0537 13.4114 11.8975C13.687 11.7412 13.8906 11.5264 14.0221 11.2529C14.1568 10.9795 14.2242 10.6654 14.2242 10.3105C14.2242 9.95573 14.1568 9.64323 14.0221 9.37305C13.8906 9.10286 13.6855 8.8929 13.4067 8.74316C13.1311 8.59017 12.7756 8.51367 12.3403 8.51367H10.743V17H9Z" fill="black"/>
</svg>
