<svg width="40" height="41" viewBox="0 0 40 41" fill="none" xmlns="http://www.w3.org/2000/svg">
<rect y="0.5" width="40" height="40" rx="20" fill="#AD80FF"/>
<path fill-rule="evenodd" clip-rule="evenodd" d="M28.479 16.0783L23.093 11.625C21.2787 10.125 18.7213 10.125 16.907 11.625L11.521 16.0783C10.5506 16.8806 10 18.0971 10 19.3663V27.3739C10 29.0419 11.2864 30.5 13 30.5H15C16.6569 30.5 18 29.1569 18 27.5V24.1848C18 23.5044 18.5044 23.0587 19 23.0587H21C21.4956 23.0587 22 23.5044 22 24.1848V27.5C22 29.1569 23.3431 30.5 25 30.5H27C28.7136 30.5 30 29.0419 30 27.3739V19.3663C30 18.0971 29.4494 16.8806 28.479 16.0783Z" fill="white"/>
</svg>
